<svg width="34" height="39" viewBox="0 0 34 39" fill="none" xmlns="http://www.w3.org/2000/svg">
<path fill-rule="evenodd" clip-rule="evenodd" d="M0 10.1458L7.80229 14.6503L15.6046 19.1549L7.80229 23.6594L0 28.164V19.1549V10.1458Z" fill="white"/>
<path fill-rule="evenodd" clip-rule="evenodd" d="M0.659546 29.3007L8.46183 24.8102L16.2641 20.3057V29.3007V38.3099L8.46183 33.8053L0.659546 29.3007Z" fill="white"/>
<path fill-rule="evenodd" clip-rule="evenodd" d="M17.5833 38.3099V29.3007V20.3057L25.3855 24.8102L33.1878 29.3007L25.3855 33.8053L17.5833 38.3099Z" fill="white"/>
<path fill-rule="evenodd" clip-rule="evenodd" d="M33.8474 28.164L26.0451 23.6594L18.2428 19.1549L26.0451 14.6503L33.8474 10.1458V19.1549V28.164Z" fill="white"/>
<path fill-rule="evenodd" clip-rule="evenodd" d="M33.1878 9.00912L25.3855 13.5137L17.5833 18.0182V9.00912V0L25.3855 4.50456L33.1878 9.00912Z" fill="white"/>
<path fill-rule="evenodd" clip-rule="evenodd" d="M16.2641 0V9.00912V18.0182L8.46183 13.5137L0.659546 9.00912L8.46183 4.50456L16.2641 0Z" fill="white"/>
</svg>
